<svg xmlns="http://www.w3.org/2000/svg" width="22.529" height="22.529" viewBox="0 0 22.529 22.529">
  <g id="close-outline" transform="translate(-2.25 -2.25)">
    <path id="Path_8" data-name="Path 8" d="M13.515,2.25A11.2,11.2,0,0,0,2.25,13.515,11.2,11.2,0,0,0,13.515,24.779,11.2,11.2,0,0,0,24.779,13.515,11.2,11.2,0,0,0,13.515,2.25Zm0,20.92a9.655,9.655,0,1,1,9.655-9.655A9.684,9.684,0,0,1,13.515,23.17Z" fill="#f9fcff"/>
    <path id="Path_9" data-name="Path 9" d="M20.1,21.39l-4.345-4.345L11.412,21.39,10.125,20.1l4.345-4.345-4.345-4.345,1.287-1.287,4.345,4.345L20.1,10.125l1.287,1.287-4.345,4.345L21.39,20.1Z" transform="translate(-2.243 -2.243)" fill="#f9fcff"/>
  </g>
</svg>
