<svg xmlns="http://www.w3.org/2000/svg" width="23.124" height="21" viewBox="0 0 23.124 21">
  <path id="logout" d="M0,5.248V17.861a4.3,4.3,0,0,0,1.258,3,4.04,4.04,0,0,0,2.935,1.194h6.322V19.441H4.193a1.556,1.556,0,0,1-1.548-1.58V5.248A1.528,1.528,0,0,1,4.193,3.7h6.322V1.054H4.193A4.067,4.067,0,0,0,1.258,2.28,4.228,4.228,0,0,0,0,5.247ZM6.935,9.055v5.032a1.1,1.1,0,0,0,1.1,1.065h5.839v3.968a.883.883,0,0,0,.516.806,1.343,1.343,0,0,0,.323.032.778.778,0,0,0,.581-.226l7.58-7.58a.828.828,0,0,0,0-1.194L15.29,3.409a.837.837,0,0,0-1.419.581v4H8.032a1.1,1.1,0,0,0-1.1,1.065Z" transform="translate(0 -1.054)" fill="#f9fcff"/>
</svg>
