<svg xmlns="http://www.w3.org/2000/svg" width="22" height="22" viewBox="0 0 22 22">
  <g id="Group_31" data-name="Group 31" transform="translate(-863 -43)">
    <circle id="Ellipse_4" data-name="Ellipse 4" cx="11" cy="11" r="11" transform="translate(863 43)" fill="#fff"/>
    <path id="register" d="M12.273,14.139c-2.055,0-6.156,1.082-6.156,3.255v1.628H18.429V17.394c0-2.173-4.1-3.255-6.156-3.255M5.348,10.883V8.442H3.809v2.442H1.5v1.628H3.809v2.442H5.348V12.511H7.656V10.883m4.617,1.628a3.17,3.17,0,0,0,3.078-3.255A3.17,3.17,0,0,0,12.273,6,3.17,3.17,0,0,0,9.2,9.255a3.17,3.17,0,0,0,3.078,3.255Z" transform="translate(863.47 41.345)" fill="#372f85"/>
  </g>
</svg>
