<svg xmlns="http://www.w3.org/2000/svg" width="21" height="21" viewBox="0 0 21 21">
  <path id="trx" d="M10.5,21A10.5,10.5,0,1,1,21,10.5,10.5,10.5,0,0,1,10.5,21ZM16.239,8.049c-.524-.372-1.086-.769-1.634-1.163a.363.363,0,0,0-.04-.027.735.735,0,0,0-.215-.122l-.006,0q-2.2-.54-4.4-1.085L6.014,4.678l-.1-.027a1,1,0,0,0-.4-.052.276.276,0,0,0-.111.043l-.037.031a.453.453,0,0,0-.1.166l-.009.024V5l.006.022c.827,2.353,1.676,4.74,2.495,7.049.631,1.779,1.286,3.62,1.926,5.429a.322.322,0,0,0,.291.215H10a.341.341,0,0,0,.3-.169L12.7,14q.877-1.3,1.755-2.6l.719-1.065c.394-.584.8-1.187,1.2-1.774l.021-.03V8.5a.47.47,0,0,0-.164-.446ZM13.425,9.344c-.565.3-1.14.606-1.72.91l1.013-1.1c.421-.461.861-.939,1.292-1.406l.009-.009a1.39,1.39,0,0,1,.131-.144c.033-.033.069-.068.1-.107.225.158.451.317.67.474q.236.171.482.341-.994.515-1.98,1.043ZM11.976,9.2c-.434.477-.883.965-1.328,1.448q-1.3-1.6-2.6-3.186L6.878,6.035l0,0c-.088-.1-.173-.212-.258-.316-.054-.071-.112-.138-.17-.209.352.092.707.178,1.055.261.306.074.625.151.937.231l5.28,1.3c-.586.634-1.174,1.276-1.744,1.9ZM10.45,15.191c.033-.323.07-.655.1-.981.027-.262.054-.529.082-.784.042-.409.088-.834.125-1.249l.009-.073c.03-.265.06-.538.079-.813a.905.905,0,0,1,.11-.052,1.332,1.332,0,0,0,.136-.067q1.051-.56,2.1-1.114c.7-.369,1.419-.751,2.132-1.129q-.97,1.425-1.932,2.855c-.542.8-1.1,1.629-1.655,2.445-.218.326-.446.658-.661.978-.243.357-.492.723-.734,1.089.03-.369.066-.741.106-1.1ZM6.224,6.232c-.04-.111-.083-.225-.119-.332.819,1,1.643,2.011,2.447,2.989C8.967,9.4,9.382,9.9,9.8,10.411c.082.1.164.2.243.3.1.126.206.258.319.384-.037.316-.067.636-.1.944-.021.215-.042.431-.066.65v0c-.009.138-.027.277-.043.412l-.069.612,0,.021c-.054.621-.121,1.249-.185,1.858-.027.252-.051.51-.079.769-.015-.046-.033-.093-.048-.136q-.069-.188-.133-.378l-.325-.914-3.083-8.7Z" fill="#f9fcff"/>
</svg>
